<svg width="132" height="26" viewBox="0 0 132 26" fill="none" xmlns="http://www.w3.org/2000/svg">
<path d="M0.910156 1.68359H4.625V11.7734C4.625 12.6016 4.73828 13.3398 4.96484 13.9883C5.19141 14.6289 5.52734 15.1719 5.97266 15.6172C6.42578 16.0625 6.98438 16.4023 7.64844 16.6367C8.3125 16.8633 9.08594 16.9766 9.96875 16.9766C10.8438 16.9766 11.6133 16.8633 12.2773 16.6367C12.9492 16.4023 13.5078 16.0625 13.9531 15.6172C14.4062 15.1719 14.7461 14.6289 14.9727 13.9883C15.1992 13.3398 15.3125 12.6016 15.3125 11.7734V1.68359H19.0273V12.2188C19.0273 13.4219 18.8242 14.5156 18.418 15.5C18.0117 16.4844 17.4219 17.3281 16.6484 18.0312C15.875 18.7344 14.9258 19.2773 13.8008 19.6602C12.6836 20.043 11.4062 20.2344 9.96875 20.2344C8.53125 20.2344 7.25 20.043 6.125 19.6602C5.00781 19.2773 4.0625 18.7344 3.28906 18.0312C2.51562 17.3281 1.92578 16.4844 1.51953 15.5C1.11328 14.5156 0.910156 13.4219 0.910156 12.2188V1.68359ZM23.1289 6.17188H26.5977V7.34375C27.5195 6.82031 28.3984 6.45312 29.2344 6.24219C30.0781 6.03125 30.9023 5.92578 31.707 5.92578C32.7617 5.92578 33.7383 6.08203 34.6367 6.39453C35.5352 6.69922 36.3125 7.15625 36.9688 7.76562C37.625 8.375 38.1367 9.13672 38.5039 10.0508C38.8789 10.957 39.0664 12.0078 39.0664 13.2031V20H35.6094V13.7656C35.6094 13.0078 35.5 12.332 35.2812 11.7383C35.0703 11.1367 34.7617 10.6328 34.3555 10.2266C33.957 9.8125 33.4688 9.5 32.8906 9.28906C32.3203 9.07031 31.6797 8.96094 30.9688 8.96094C30.5938 8.96094 30.207 9 29.8086 9.07812C29.418 9.15625 29.0312 9.26953 28.6484 9.41797C28.2734 9.55859 27.9102 9.73828 27.5586 9.95703C27.207 10.168 26.8867 10.4102 26.5977 10.6836V20H23.1289V6.17188ZM45.1602 4.28516C44.8164 4.28516 44.5039 4.23828 44.2227 4.14453C43.9492 4.04297 43.7148 3.91016 43.5195 3.74609C43.3242 3.57422 43.1719 3.37891 43.0625 3.16016C42.9609 2.93359 42.9102 2.69531 42.9102 2.44531C42.9102 2.1875 42.9609 1.94922 43.0625 1.73047C43.1719 1.50391 43.3242 1.30859 43.5195 1.14453C43.7148 0.980469 43.9492 0.851562 44.2227 0.757812C44.5039 0.65625 44.8164 0.605469 45.1602 0.605469C45.5117 0.605469 45.8242 0.65625 46.0977 0.757812C46.3789 0.851562 46.6172 0.980469 46.8125 1.14453C47.0078 1.30859 47.1562 1.50391 47.2578 1.73047C47.3672 1.94922 47.4219 2.1875 47.4219 2.44531C47.4219 2.69531 47.3672 2.93359 47.2578 3.16016C47.1562 3.37891 47.0078 3.57422 46.8125 3.74609C46.6172 3.91016 46.3789 4.04297 46.0977 4.14453C45.8242 4.23828 45.5117 4.28516 45.1602 4.28516ZM43.4258 6.17188H46.8945V20H43.4258V6.17188ZM50.5156 13.1445C50.5156 12.043 50.7227 11.0508 51.1367 10.168C51.5508 9.27734 52.1211 8.51953 52.8477 7.89453C53.582 7.26172 54.4492 6.77734 55.4492 6.44141C56.457 6.09766 57.5469 5.92578 58.7188 5.92578C59.7266 5.92578 60.6523 6.04297 61.4961 6.27734C62.3398 6.50391 63.0703 6.80078 63.6875 7.16797V6.17188H67.1562V25.6484H63.6875V18.6992C63.3828 18.9102 63.0352 19.1094 62.6445 19.2969C62.2539 19.4844 61.8359 19.6484 61.3906 19.7891C60.9453 19.9297 60.4766 20.0391 59.9844 20.1172C59.5 20.2031 59.0078 20.2461 58.5078 20.2461C57.3359 20.2461 56.2578 20.0742 55.2734 19.7305C54.2969 19.3867 53.457 18.9023 52.7539 18.2773C52.0508 17.6523 51.5 16.9062 51.1016 16.0391C50.7109 15.1641 50.5156 14.1992 50.5156 13.1445ZM54.1602 13.1445C54.1602 13.6992 54.2695 14.2227 54.4883 14.7148C54.7148 15.207 55.0352 15.6406 55.4492 16.0156C55.8711 16.3828 56.375 16.6758 56.9609 16.8945C57.5547 17.1055 58.2188 17.2109 58.9531 17.2109C59.4219 17.2109 59.8789 17.168 60.3242 17.082C60.7695 16.9883 61.1914 16.8594 61.5898 16.6953C61.9961 16.5312 62.375 16.332 62.7266 16.0977C63.0859 15.8633 63.4062 15.6016 63.6875 15.3125V10.5195C62.9766 9.95703 62.2422 9.55859 61.4844 9.32422C60.7344 9.08203 59.9648 8.96094 59.1758 8.96094C58.3789 8.96094 57.668 9.07031 57.043 9.28906C56.4258 9.5 55.9023 9.79297 55.4727 10.168C55.0508 10.543 54.7266 10.9844 54.5 11.4922C54.2734 12 54.1602 12.5508 54.1602 13.1445ZM70.7656 10.7891C70.7656 9.40625 71.0195 8.14062 71.5273 6.99219C72.0352 5.84375 72.7461 4.85938 73.6602 4.03906C74.582 3.21094 75.6836 2.57031 76.9648 2.11719C78.2539 1.66406 79.6797 1.4375 81.2422 1.4375C82.7969 1.4375 84.2188 1.66406 85.5078 2.11719C86.7969 2.57031 87.8984 3.21094 88.8125 4.03906C89.7344 4.85938 90.4492 5.84375 90.957 6.99219C91.4648 8.14062 91.7188 9.40625 91.7188 10.7891C91.7188 12.1797 91.4648 13.457 90.957 14.6211C90.4492 15.7773 89.7344 16.7734 88.8125 17.6094C87.8984 18.4453 86.7969 19.0977 85.5078 19.5664C84.2188 20.0273 82.7969 20.2578 81.2422 20.2578C79.6797 20.2578 78.2539 20.0273 76.9648 19.5664C75.6836 19.0977 74.582 18.4453 73.6602 17.6094C72.7461 16.7734 72.0352 15.7773 71.5273 14.6211C71.0195 13.457 70.7656 12.1797 70.7656 10.7891ZM74.4805 10.7891C74.4805 11.7344 74.6484 12.5859 74.9844 13.3438C75.3281 14.1016 75.8008 14.75 76.4023 15.2891C77.0117 15.8203 77.7266 16.2305 78.5469 16.5195C79.375 16.8086 80.2734 16.9531 81.2422 16.9531C82.2109 16.9531 83.1055 16.8086 83.9258 16.5195C84.7539 16.2305 85.4688 15.8203 86.0703 15.2891C86.6719 14.75 87.1445 14.1016 87.4883 13.3438C87.832 12.5859 88.0039 11.7344 88.0039 10.7891C88.0039 9.84375 87.832 8.99609 87.4883 8.24609C87.1445 7.49609 86.6719 6.86328 86.0703 6.34766C85.4688 5.82422 84.7539 5.42578 83.9258 5.15234C83.1055 4.87891 82.2109 4.74219 81.2422 4.74219C80.2734 4.74219 79.375 4.87891 78.5469 5.15234C77.7266 5.42578 77.0117 5.82422 76.4023 6.34766C75.8008 6.86328 75.3281 7.49609 74.9844 8.24609C74.6484 8.99609 74.4805 9.84375 74.4805 10.7891ZM95.4102 6.17188H98.8789V7.34375C99.8008 6.82031 100.68 6.45312 101.516 6.24219C102.359 6.03125 103.184 5.92578 103.988 5.92578C105.043 5.92578 106.02 6.08203 106.918 6.39453C107.816 6.69922 108.594 7.15625 109.25 7.76562C109.906 8.375 110.418 9.13672 110.785 10.0508C111.16 10.957 111.348 12.0078 111.348 13.2031V20H107.891V13.7656C107.891 13.0078 107.781 12.332 107.562 11.7383C107.352 11.1367 107.043 10.6328 106.637 10.2266C106.238 9.8125 105.75 9.5 105.172 9.28906C104.602 9.07031 103.961 8.96094 103.25 8.96094C102.875 8.96094 102.488 9 102.09 9.07812C101.699 9.15625 101.312 9.26953 100.93 9.41797C100.555 9.55859 100.191 9.73828 99.8398 9.95703C99.4883 10.168 99.168 10.4102 98.8789 10.6836V20H95.4102V6.17188ZM114.957 13.0391C114.957 12.1016 115.148 11.207 115.531 10.3555C115.914 9.49609 116.465 8.73828 117.184 8.08203C117.902 7.42578 118.781 6.90234 119.82 6.51172C120.867 6.12109 122.055 5.92578 123.383 5.92578C124.703 5.92578 125.891 6.125 126.945 6.52344C128.008 6.91406 128.906 7.45312 129.641 8.14062C130.383 8.82812 130.949 9.63672 131.34 10.5664C131.738 11.4961 131.938 12.4922 131.938 13.5547C131.938 13.6875 131.934 13.832 131.926 13.9883C131.926 14.1367 131.918 14.2734 131.902 14.3984H118.824C118.973 14.8125 119.211 15.1914 119.539 15.5352C119.875 15.8789 120.293 16.1758 120.793 16.4258C121.293 16.6758 121.871 16.8711 122.527 17.0117C123.184 17.1445 123.91 17.2109 124.707 17.2109C125.504 17.2109 126.297 17.1289 127.086 16.9648C127.875 16.793 128.629 16.5781 129.348 16.3203L130.52 18.9688C130.066 19.1797 129.605 19.3672 129.137 19.5312C128.676 19.6875 128.191 19.8203 127.684 19.9297C127.184 20.0312 126.656 20.1094 126.102 20.1641C125.555 20.2188 124.977 20.2461 124.367 20.2461C122.812 20.2461 121.449 20.0586 120.277 19.6836C119.105 19.3086 118.125 18.7969 117.336 18.1484C116.547 17.5 115.953 16.7383 115.555 15.8633C115.156 14.9883 114.957 14.0469 114.957 13.0391ZM128.258 11.6914C128.133 11.3086 127.938 10.9531 127.672 10.625C127.414 10.2891 127.09 10 126.699 9.75781C126.309 9.50781 125.855 9.3125 125.34 9.17188C124.824 9.03125 124.258 8.96094 123.641 8.96094C122.984 8.96094 122.387 9.03516 121.848 9.18359C121.309 9.33203 120.836 9.53125 120.43 9.78125C120.023 10.0312 119.684 10.3203 119.41 10.6484C119.145 10.9766 118.949 11.3242 118.824 11.6914H128.258Z" fill="white"/>
</svg>
