
<svg width="32" height="32" viewBox="0 0 32 32" fill="none" xmlns="http://www.w3.org/2000/svg">
<rect width="32" height="32" fill="white"/>
<path d="M3.02221 10.8837L3.03887 19.7731L3.18881 20.59C3.37762 21.6096 3.72747 22.9898 3.94959 23.5587C4.35498 24.6178 5.05468 25.6994 5.94874 26.6401C7.82016 28.6118 9.55276 29.4005 12.8069 29.7666C16.1666 30.1441 18.8377 30.0652 21.0812 29.5188C23.0137 29.0456 24.3076 28.347 25.6792 27.0176C27.4229 25.322 28.3059 23.57 28.839 20.759L28.9611 20.1111L28.9778 11.0527L29 2H24.8296H20.6647V10.4612C20.6647 15.4467 20.6425 19.1591 20.6091 19.4858C20.3592 22.0772 18.6877 23.57 16.0167 23.5756C13.5677 23.5813 11.9018 22.2687 11.4686 19.9872C11.402 19.6323 11.3909 18.1789 11.3909 10.7823V2H7.19821H3L3.02221 10.8837Z" fill="black"/>
</svg>
