<svg width="24" height="24" viewBox="0 0 24 24" fill="none" xmlns="http://www.w3.org/2000/svg">
<path d="M12 3C9.17942 3 6.91892 5.1212 6.91892 7.75C6.92528 8.02993 6.94623 8.43456 6.97297 8.77557C6.49064 8.97999 6.45544 9.91738 6.86487 10.8807C7.02722 11.2627 7.23401 11.556 7.45946 11.7983C7.51424 12.069 7.49987 12.1906 7.56757 12.5C7.75649 13.066 8.50133 14.1752 9.18919 15.0909C9.25664 15.7942 9.32661 16.5039 9.18919 17.304C7.20716 18.946 2.10051 19.6523 2.10811 21.3523L2 22H22L21.8919 21.3523C21.8838 19.8973 16.7685 19.0039 14.8108 17.304C14.7316 16.6532 14.7165 16.0017 14.7568 15.3608C15.3836 14.3949 16.222 13.1304 16.4324 12.5C16.5081 12.1808 16.5356 11.9652 16.5946 11.6903C16.7824 11.4632 16.9427 11.2062 17.0811 10.8807C17.47 9.96555 17.4449 9.09194 17.027 8.82955C17.0517 8.46082 17.0702 8.06849 17.0811 7.75C17.0811 5.1212 14.8206 3 12 3Z" fill="white"/>
</svg>
