<svg width="24" height="24" viewBox="0 0 24 24" fill="none" xmlns="http://www.w3.org/2000/svg">
<path d="M16.6512 6.59852C16.6512 4.21245 14.7169 2.27811 12.3308 2.27811C11.1818 2.27328 10.0782 2.72631 9.264 3.53707C8.44981 4.34782 7.99213 5.44951 7.99213 6.59852M16.5139 21.5001H8.16604C5.09968 21.5001 2.74727 20.3926 3.41547 15.9349L4.1935 9.89371C4.6054 7.66946 6.02416 6.8182 7.26901 6.8182H17.4475C18.7107 6.8182 20.047 7.73353 20.523 9.89371L21.301 15.9349C21.8686 19.8891 19.5802 21.5001 16.5139 21.5001Z" stroke="white" stroke-width="1.5" stroke-linecap="round" stroke-linejoin="round"/>
<path d="M15.296 11.1021H15.251" stroke="white" stroke-width="1.5" stroke-linecap="round" stroke-linejoin="round"/>
<path d="M9.46592 11.1021H9.41992" stroke="white" stroke-width="1.5" stroke-linecap="round" stroke-linejoin="round"/>
</svg>
