<svg width="24" height="24" viewBox="0 0 24 24" fill="none" xmlns="http://www.w3.org/2000/svg">
<path d="M21.4286 8.78906C21.4286 8.12109 21.3406 7.53147 21.1646 7.02018C20.9887 6.5089 20.7636 6.10276 20.4894 5.80176C20.2152 5.50076 19.8817 5.25543 19.4888 5.06576C19.096 4.87609 18.7113 4.74826 18.3348 4.68229C17.9583 4.61632 17.5573 4.58333 17.1317 4.58333C16.7061 4.58333 16.2478 4.68848 15.7567 4.89876C15.2656 5.10905 14.8134 5.37294 14.4001 5.69043C13.9868 6.00792 13.6328 6.3048 13.3382 6.58105C13.0435 6.85731 12.798 7.11089 12.6016 7.3418C12.4542 7.52322 12.2537 7.61393 12 7.61393C11.7463 7.61393 11.5458 7.52322 11.3984 7.3418C11.202 7.11089 10.9565 6.85731 10.6618 6.58105C10.3672 6.3048 10.0132 6.00792 9.59989 5.69043C9.18657 5.37294 8.73437 5.10905 8.2433 4.89876C7.75223 4.68848 7.2939 4.58333 6.8683 4.58333C6.44271 4.58333 6.04167 4.61632 5.66518 4.68229C5.28869 4.74826 4.90402 4.87609 4.51116 5.06576C4.1183 5.25543 3.78478 5.50076 3.5106 5.80176C3.23642 6.10276 3.01135 6.5089 2.83538 7.02018C2.65941 7.53147 2.57143 8.12109 2.57143 8.78906C2.57143 10.1745 3.33668 11.6382 4.86719 13.1803L12 20.1074L19.1205 13.1927C20.6592 11.6424 21.4286 10.1745 21.4286 8.78906ZM23 8.78906C23 10.6115 22.0629 12.467 20.1886 14.3555L12.5402 21.7773C12.3929 21.9258 12.2128 22 12 22C11.7872 22 11.6071 21.9258 11.4598 21.7773L3.79911 14.3307C3.71726 14.2648 3.60472 14.1576 3.4615 14.0091C3.31827 13.8607 3.09115 13.5906 2.78013 13.1989C2.46912 12.8072 2.19085 12.4052 1.94531 11.9928C1.69978 11.5805 1.48084 11.0816 1.2885 10.4961C1.09617 9.91059 1 9.34158 1 8.78906C1 6.97483 1.51972 5.55642 2.55915 4.53385C3.59859 3.51128 5.03497 3 6.8683 3C7.37574 3 7.89342 3.08865 8.42132 3.26595C8.94922 3.44325 9.44029 3.6824 9.89453 3.9834C10.3488 4.2844 10.7396 4.56684 11.067 4.83073C11.3943 5.09462 11.7054 5.375 12 5.67188C12.2946 5.375 12.6057 5.09462 12.933 4.83073C13.2604 4.56684 13.6512 4.2844 14.1055 3.9834C14.5597 3.6824 15.0508 3.44325 15.5787 3.26595C16.1066 3.08865 16.6243 3 17.1317 3C18.965 3 20.4014 3.51128 21.4408 4.53385C22.4803 5.55642 23 6.97483 23 8.78906Z" fill="white"/>
</svg>
